<svg xmlns="http://www.w3.org/2000/svg" xmlns:xlink="http://www.w3.org/1999/xlink" width="22" height="23" viewBox="0 0 22 23"><defs><filter id="b" width="209.4%" height="200.5%" x="-58%" y="-31.5%" filterUnits="objectBoundingBox"><feMorphology in="SourceAlpha" operator="dilate" radius="1.8" result="shadowSpreadOuter1"/><feOffset dy="3" in="shadowSpreadOuter1" result="shadowOffsetOuter1"/><feGaussianBlur in="shadowOffsetOuter1" result="shadowBlurOuter1" stdDeviation="1.5"/><feComposite in="shadowBlurOuter1" in2="SourceAlpha" operator="out" result="shadowBlurOuter1"/><feColorMatrix in="shadowBlurOuter1" values="0 0 0 0 0.433063452 0 0 0 0 0.433063452 0 0 0 0 0.433063452 0 0 0 0.638600169 0"/></filter><path id="a" d="M629.310046,324.001686 L632.804639,335.29191 C632.935134,335.713511 633.382696,335.949498 633.804297,335.819003 C633.9922,335.760842 634.152051,335.635423 634.253249,335.466754 L635.990238,332.571669 C636.212863,332.200614 636.549946,331.911873 636.950788,331.748874 L640.389834,330.350413 C640.798659,330.184168 640.995309,329.71798 640.829063,329.309155 C640.757173,329.132365 640.624385,328.987141 640.454718,328.899755 L629.932192,323.480126 C629.716036,323.368794 629.450554,323.453772 629.339223,323.669928 C629.286431,323.772427 629.275955,323.891546 629.310046,324.001686 Z"/></defs><g fill="none" fill-rule="evenodd" stroke-linejoin="round" transform="rotate(-3 -5805.748 12084.3)"><use xlink:href="#a" fill="#000" filter="url(#b)"/><path fill="#000" stroke="#FFF" stroke-width="1.8" d="M629.587533,322.525584 L640.858909,328.095598 C641.223443,328.28095 641.508797,328.591492 641.662769,328.970135 C641.83951,329.404769 641.823348,329.869895 641.654343,330.270548 C641.485337,330.6712 641.163488,331.007379 640.728853,331.184119 L640.728853,331.184119 L637.289808,332.58258 C637.069547,332.672147 636.884321,332.830809 636.761989,333.034703 L636.761989,333.034703 L635.024999,335.929788 C634.809827,336.288421 634.469942,336.555096 634.070412,336.67876 C633.622196,336.817493 633.160181,336.761418 632.775535,336.558605 C632.39089,336.355792 632.083615,336.006241 631.944882,335.558026 L631.944882,335.558026 L628.381916,324.046906 C628.49554,323.366158 628.755312,323.018903 628.98395,322.827231 C629.119436,322.713649 629.310626,322.598838 629.587533,322.525584 L629.587533,322.525584 Z"/></g></svg>