<svg height="30px" version="1.1" viewBox="0 0 30 30" width="30px" xmlns="http://www.w3.org/2000/svg" xmlns:xlink="http://www.w3.org/1999/xlink">
    
    
    <defs/><g fill="none" fill-rule="evenodd" id="UI-/-rotate" stroke="none" stroke-width="1"><g id="rotate"><path d="M26,15 C26,21.0751277 21.0751277,26 15,26 C8.92487227,26 4,21.0751277 4,15 C4,8.92487227 8.92487227,4 15,4 C21.0751277,4 26,8.92487227 26,15" fill="#7AFF36" id="Fill-1" opacity="0"/><path d="M2.03514487,14 C2.50802304,7.29720343 7.69372664,2 14,2 L14,0.987980085 C14,0.689790871 14.2913307,0.50333724 14.5243019,0.652500144 L17.8252716,2.76454853 C18.0582428,2.91357484 18.0582428,3.28634551 17.8252716,3.43550841 L14.5243019,5.5475568 C14.2913307,5.6965831 14,5.51026607 14,5.21207686 L14,4.29016879 C8.85999904,4.29016879 4.62368997,8.56159996 4.1567303,14 L5.2120199,14 C5.51020912,14 5.69666275,14.2913307 5.54749984,14.5243019 L3.43545146,17.8252716 C3.28642515,18.0582428 2.91365448,18.0582428 2.76449158,17.8252716 L0.652443193,14.5243019 C0.503416884,14.2913307 0.689733919,14 0.987923133,14 L2.03514487,14 Z" fill="#669DF6" id="Combined-Shape"/></g></g></svg>