<svg fill="none" height="45" viewBox="0 0 80 45" width="80" xmlns="http://www.w3.org/2000/svg"><rect fill="white" height="45" width="80"/><circle cx="4" cy="5" fill="#E4E4E4" r="2"/><circle cx="4" cy="17" fill="#E4E4E4" r="2"/><circle cx="4" cy="29" fill="#E4E4E4" r="2"/><circle cx="64" cy="5" fill="#E4E4E4" r="2"/><circle cx="76" cy="5" fill="#E4E4E4" r="2"/><circle cx="64" cy="17" fill="#E4E4E4" r="2"/><circle cx="76" cy="17" fill="#E4E4E4" r="2"/><circle cx="64" cy="29" fill="#E4E4E4" r="2"/><circle cx="76" cy="29" fill="#E4E4E4" r="2"/><circle cx="52" cy="5" fill="#E4E4E4" r="2"/><circle cx="52" cy="17" fill="#E4E4E4" r="2"/><circle cx="52" cy="29" fill="#E4E4E4" r="2"/><circle cx="40" cy="5" fill="#E4E4E4" r="2"/><circle cx="40" cy="17" fill="#E4E4E4" r="2"/><circle cx="40" cy="29" fill="#E4E4E4" r="2"/><circle cx="28" cy="5" fill="#E4E4E4" r="2"/><circle cx="28" cy="17" fill="#E4E4E4" r="2"/><circle cx="28" cy="29" fill="#E4E4E4" r="2"/><circle cx="16" cy="5" fill="#E4E4E4" r="2"/><circle cx="16" cy="17" fill="#E4E4E4" r="2"/><circle cx="16" cy="29" fill="#E4E4E4" r="2"/><circle cx="4" cy="41" fill="#E4E4E4" r="2"/><circle cx="64" cy="41" fill="#E4E4E4" r="2"/><circle cx="76" cy="41" fill="#E4E4E4" r="2"/><circle cx="52" cy="41" fill="#E4E4E4" r="2"/><circle cx="40" cy="41" fill="#E4E4E4" r="2"/><circle cx="28" cy="41" fill="#E4E4E4" r="2"/><circle cx="16" cy="41" fill="#E4E4E4" r="2"/></svg>